<?xml version="1.0" encoding="UTF-8"?>
<!DOCTYPE svg PUBLIC "-//W3C//DTD SVG 1.1//EN" "http://www.w3.org/Graphics/SVG/1.1/DTD/svg11.dtd">
<!-- Creator: CorelDRAW 2017 -->
<svg xmlns="http://www.w3.org/2000/svg" xml:space="preserve" width="1.70666in" height="1.70666in" version="1.1" style="shape-rendering:geometricPrecision; text-rendering:geometricPrecision; image-rendering:optimizeQuality; fill-rule:evenodd; clip-rule:evenodd"
viewBox="0 0 1707 1707"
 xmlns:xlink="http://www.w3.org/1999/xlink">
 <defs>
  <style type="text/css">
   <![CDATA[
    .fil2 {fill:none}
    .fil0 {fill:#316C96}
    .fil1 {fill:white}
   ]]>
  </style>
 </defs>
 <g id="Layer_x0020_1">
  <metadata id="CorelCorpID_0Corel-Layer"/>
  <g id="_1587063549872">
   <g>
    <path class="fil0" d="M853 81c427,0 773,346 773,773 0,427 -346,773 -773,773 -427,0 -773,-346 -773,-773 0,-427 346,-773 773,-773zm219 599l0 0zm-359 -138l-91 0c-39,0 -72,32 -72,72l0 458 0 86 0 83 0 102 4 0 81 0 518 0c96,0 175,-79 175,-175l0 -638c0,-96 -79,-175 -175,-175l-599 0c-96,0 -175,79 -175,175l0 638c0,65 36,121 88,152l0 -170 0 -295 0 -307c0,-50 41,-91 91,-91l590 0c50,0 91,41 91,91l0 602c0,50 -41,91 -91,91l-514 0 0 -84 0 -86 0 -392c0,-28 23,-51 51,-51l26 0 193 0 20 0 27 0 48 0 20 0c2,0 3,0 4,0 21,0 40,14 45,34 1,4 2,8 2,13l0 1 0 1 0 1 0 1 0 2c-2,24 -22,42 -47,42l-73 0 -47 0 -105 0c-40,0 -73,33 -73,73l0 109c0,40 33,73 73,73l105 0 99 0c42,0 63,15 67,43 0,27 -21,49 -47,51l-120 0 -164 0 0 86 344 0c39,0 71,-32 71,-71l0 -112c0,-43 -32,-75 -72,-75l-13 0 -256 0c-6,0 -12,-5 -12,-12l0 -76c0,-6 5,-12 12,-12l89 0 20 0 11 0 15 0 121 0 13 0c40,0 72,-32 72,-72l0 -6 0 -108 0 -1 0 -1 0 -2c-2,-29 -21,-54 -47,-64 -6,-2 -13,-4 -19,-4l-2 0 -2 0 -1 0 -1 0 -84 0 -75 0 -20 0 -193 0z"/>
    <path class="fil1" d="M468 1151l0 -295 0 -307c0,-50 41,-91 91,-91l590 0c50,0 91,41 91,91l0 602c0,50 -41,91 -91,91l-514 0 0 -84 0 -86 0 -392c0,-28 23,-51 51,-51l26 0 193 0 20 0 27 0 48 0 20 0c2,0 3,0 4,0 21,0 40,14 45,34 1,4 2,8 2,13l0 1 0 1 0 1 0 1 0 2c-2,24 -22,42 -47,42l-73 0 -47 0 -105 0c-40,0 -73,33 -73,73l0 109c0,40 33,73 73,73l105 0 99 0c42,0 63,15 67,43 0,27 -21,49 -47,51l-120 0 -164 0 0 86 344 0c39,0 71,-32 71,-71l0 -112c0,-43 -32,-75 -72,-75l-13 0 -256 0c-6,0 -12,-5 -12,-12l0 -76c0,-6 5,-12 12,-12l89 0 20 0 11 0 15 0 121 0 13 0c40,0 72,-32 72,-72l0 -6 0 -108 0 -1 0 -1 0 -2c-2,-29 -21,-54 -47,-64 -6,-2 -13,-4 -19,-4l-2 0 -2 0 -1 0 -1 0 -84 0 -75 0 -20 0 -193 0 -91 0c-39,0 -72,32 -72,72l0 458 0 86 0 83 0 102 4 0 81 0 518 0c96,0 175,-79 175,-175l0 -638c0,-96 -79,-175 -175,-175l-599 0c-96,0 -175,79 -175,175l0 638c0,65 36,121 88,152l0 -170z"/>
   </g>
   <polygon class="fil2" points="0,0 1707,0 1707,1707 0,1707 "/>
  </g>
 </g>
</svg>
