<?xml version="1.0" encoding="UTF-8"?>
<!DOCTYPE svg PUBLIC "-//W3C//DTD SVG 1.1//EN" "http://www.w3.org/Graphics/SVG/1.1/DTD/svg11.dtd">
<!-- Creator: CorelDRAW 2017 -->
<svg xmlns="http://www.w3.org/2000/svg" xml:space="preserve" width="2.22333in" height="0.833331in" version="1.1" style="shape-rendering:geometricPrecision; text-rendering:geometricPrecision; image-rendering:optimizeQuality; fill-rule:evenodd; clip-rule:evenodd"
viewBox="0 0 2223 833"
 xmlns:xlink="http://www.w3.org/1999/xlink">
 <defs>
  <style type="text/css">
   <![CDATA[
    .fil3 {fill:none}
    .fil1 {fill:#316C96}
    .fil2 {fill:white}
    .fil0 {fill:black;fill-rule:nonzero}
   ]]>
  </style>
 </defs>
 <g id="Layer_x0020_1">
  <metadata id="CorelCorpID_0Corel-Layer"/>
  <g id="_1587061102832">
   <path class="fil0" d="M798 152l92 0c21,0 37,2 47,5 15,4 27,12 38,23 10,11 18,24 24,40 5,16 8,36 8,59 0,21 -3,38 -8,53 -6,18 -15,33 -27,44 -9,9 -21,15 -35,20 -11,4 -26,5 -45,5l-95 0 0 -250zm51 42l0 165 38 0c14,0 24,-1 30,-2 8,-2 15,-6 20,-10 5,-5 10,-13 13,-24 3,-11 5,-26 5,-46 0,-19 -2,-34 -5,-44 -3,-10 -8,-18 -14,-24 -6,-6 -14,-10 -23,-12 -7,-2 -21,-2 -41,-2l-23 0zm407 208l-54 0 -22 -57 -100 0 -21 57 -53 0 97 -250 53 0 100 250zm-92 -99l-35 -92 -34 92 68 0zm100 99l0 -250 81 0c31,0 51,1 60,4 14,4 26,12 36,24 10,13 14,29 14,49 0,15 -3,28 -8,39 -6,10 -13,19 -21,25 -9,6 -17,10 -26,12 -12,2 -29,4 -52,4l-33 0 0 94 -51 0zm51 -208l0 71 28 0c20,0 33,-1 40,-4 7,-3 12,-7 16,-12 4,-6 6,-12 6,-19 0,-9 -3,-17 -8,-23 -5,-6 -12,-10 -20,-11 -6,-1 -18,-2 -36,-2l-24 0zm163 208l0 -250 185 0 0 42 -134 0 0 55 125 0 0 42 -125 0 0 68 139 0 0 42 -190 0zm213 0l0 -250 49 0 103 167 0 -167 47 0 0 250 -51 0 -101 -164 0 164 -47 0zm233 -250l100 0c20,0 35,1 44,2 10,2 18,5 26,10 8,5 14,12 19,21 5,9 8,18 8,29 0,12 -3,22 -9,32 -6,10 -15,17 -26,22 15,4 27,12 35,23 8,11 12,23 12,38 0,11 -3,22 -8,33 -5,11 -13,19 -22,26 -9,6 -20,10 -34,12 -8,1 -29,1 -61,2l-85 0 0 -250zm51 42l0 58 33 0c20,0 32,0 37,-1 9,-1 15,-4 20,-9 5,-5 7,-11 7,-19 0,-8 -2,-14 -6,-19 -4,-5 -11,-8 -19,-9 -5,-1 -19,-1 -43,-1l-29 0zm0 99l0 67 47 0c18,0 30,-1 35,-2 7,-1 14,-5 18,-10 5,-5 7,-12 7,-21 0,-8 -2,-14 -5,-19 -4,-5 -9,-9 -16,-11 -7,-2 -22,-4 -45,-4l-41 0zm180 109l0 -250 51 0 0 250 -51 0z"/>
   <path class="fil0" d="M805 480l26 0c6,0 10,0 13,1 4,1 8,3 11,6 3,3 5,7 7,11 2,4 2,10 2,17 0,6 -1,11 -2,15 -2,5 -4,9 -7,12 -2,2 -6,4 -10,6 -3,1 -7,1 -13,1l-27 0 0 -70zm14 12l0 46 11 0c4,0 7,0 9,-1 2,-1 4,-2 6,-3 2,-1 3,-4 4,-7 1,-3 1,-7 1,-13 0,-5 0,-10 -1,-12 -1,-3 -2,-5 -4,-7 -2,-2 -4,-3 -7,-3 -2,0 -6,-1 -12,-1l-6 0zm66 23l-12 -2c1,-5 4,-9 7,-11 3,-2 8,-4 15,-4 6,0 10,1 13,2 3,1 5,3 6,5 1,2 2,6 2,12l0 16c0,4 0,8 1,10 0,2 1,4 2,7l-13 0c0,-1 -1,-2 -1,-4 0,-1 0,-1 0,-2 -2,2 -5,4 -7,5 -3,1 -5,2 -8,2 -5,0 -9,-1 -12,-4 -3,-3 -5,-6 -5,-11 0,-3 1,-5 2,-8 1,-2 3,-4 6,-5 2,-1 6,-2 11,-3 6,-1 11,-2 13,-3l0 -1c0,-3 -1,-4 -2,-6 -1,-1 -4,-2 -7,-2 -2,0 -4,0 -6,1 -1,1 -2,3 -3,5zm18 11c-2,1 -4,1 -8,2 -4,1 -6,2 -7,2 -2,1 -3,3 -3,5 0,2 1,4 2,5 1,1 3,2 5,2 2,0 5,-1 7,-2 2,-1 3,-3 3,-4 0,-1 1,-3 1,-7l0 -3zm73 24l-13 0 0 -26c0,-5 0,-9 -1,-11 -1,-2 -2,-3 -3,-4 -1,-1 -3,-1 -5,-1 -2,0 -4,1 -6,2 -2,1 -3,3 -4,5 -1,2 -1,6 -1,12l0 23 -13 0 0 -51 12 0 0 7c4,-6 10,-9 17,-9 3,0 6,1 8,2 2,1 4,2 6,4 1,2 2,4 3,6 1,2 1,5 1,9l0 32zm24 -35l-12 -2c1,-5 4,-9 7,-11 3,-2 8,-4 15,-4 6,0 10,1 13,2 3,1 5,3 6,5 1,2 2,6 2,12l0 16c0,4 0,8 1,10 0,2 1,4 2,7l-13 0c0,-1 -1,-2 -1,-4 0,-1 0,-1 0,-2 -2,2 -5,4 -7,5 -3,1 -5,2 -8,2 -5,0 -9,-1 -12,-4 -3,-3 -5,-6 -5,-11 0,-3 1,-5 2,-8 1,-2 3,-4 6,-5 2,-1 6,-2 11,-3 6,-1 11,-2 13,-3l0 -1c0,-3 -1,-4 -2,-6 -1,-1 -4,-2 -7,-2 -2,0 -4,0 -6,1 -1,1 -2,3 -3,5zm18 11c-2,1 -4,1 -8,2 -4,1 -6,2 -7,2 -2,1 -3,3 -3,5 0,2 1,4 2,5 1,1 3,2 5,2 2,0 5,-1 7,-2 2,-1 3,-3 3,-4 0,-1 1,-3 1,-7l0 -3zm54 24l0 -70 23 0c9,0 14,0 17,1 4,1 7,3 10,7 3,4 4,8 4,14 0,4 -1,8 -2,11 -2,3 -4,5 -6,7 -2,2 -5,3 -7,3 -3,1 -8,1 -15,1l-9 0 0 26 -14 0zm14 -58l0 20 8 0c6,0 9,0 11,-1 2,-1 3,-2 4,-3 1,-2 2,-3 2,-5 0,-3 -1,-5 -2,-6 -2,-2 -3,-3 -6,-3 -2,0 -5,0 -10,0l-7 0zm80 42l13 2c-2,5 -4,9 -8,11 -4,3 -8,4 -14,4 -9,0 -15,-3 -20,-9 -3,-5 -5,-10 -5,-18 0,-8 2,-15 7,-20 4,-5 10,-7 17,-7 8,0 14,2 18,7 4,5 6,13 6,23l-34 0c0,4 1,7 3,9 2,2 5,3 8,3 2,0 4,-1 5,-2 1,-1 3,-3 3,-6zm1 -14c0,-4 -1,-7 -3,-9 -2,-2 -4,-3 -7,-3 -3,0 -5,1 -7,3 -2,2 -3,5 -3,9l20 0zm71 30l-13 0 0 -26c0,-5 0,-9 -1,-11 -1,-2 -2,-3 -3,-4 -1,-1 -3,-1 -5,-1 -2,0 -4,1 -6,2 -2,1 -3,3 -4,5 -1,2 -1,6 -1,12l0 23 -13 0 0 -51 12 0 0 7c4,-6 10,-9 17,-9 3,0 6,1 8,2 2,1 4,2 6,4 1,2 2,4 3,6 1,2 1,5 1,9l0 32zm9 -14l14 -2c1,3 2,5 4,6 2,1 4,2 7,2 3,0 6,-1 8,-2 1,-1 2,-2 2,-4 0,-1 0,-2 -1,-3 -1,-1 -2,-1 -4,-2 -11,-2 -18,-5 -21,-7 -4,-3 -6,-7 -6,-11 0,-4 2,-8 5,-11 3,-3 9,-5 16,-5 7,0 12,1 16,3 3,2 6,6 7,10l-13 2c-1,-2 -2,-4 -3,-5 -2,-1 -4,-2 -7,-2 -4,0 -6,0 -8,1 -1,1 -2,2 -2,3 0,1 0,2 1,2 1,1 5,2 13,4 7,2 12,4 15,6 3,2 4,6 4,10 0,5 -2,9 -6,12 -4,3 -10,5 -17,5 -7,0 -12,-1 -16,-4 -4,-3 -7,-7 -8,-11zm59 -43l0 -12 13 0 0 12 -13 0zm0 58l0 -51 13 0 0 51 -13 0zm61 0l0 -8c-2,3 -4,5 -7,6 -3,2 -6,2 -10,2 -3,0 -7,-1 -9,-2 -3,-2 -5,-4 -6,-6 -1,-3 -2,-6 -2,-11l0 -32 13 0 0 23c0,7 0,12 1,13 0,2 1,3 3,4 1,1 3,1 5,1 2,0 4,-1 6,-2 2,-1 3,-3 4,-5 1,-2 1,-6 1,-14l0 -22 13 0 0 51 -12 0zm73 0l-13 0 0 -26c0,-5 0,-9 -1,-11 -1,-2 -2,-3 -3,-4 -1,-1 -3,-1 -5,-1 -2,0 -4,1 -6,2 -2,1 -3,3 -4,5 -1,2 -1,6 -1,12l0 23 -13 0 0 -51 12 0 0 7c4,-6 10,-9 17,-9 3,0 6,1 8,2 2,1 4,2 6,4 1,2 2,4 3,6 0,2 1,5 1,9l0 32zm41 -70l28 0c6,0 10,0 12,1 3,0 5,1 7,3 2,1 4,3 5,6 1,2 2,5 2,8 0,3 -1,6 -3,9 -2,3 -4,5 -7,6 4,1 8,3 10,6 2,3 3,7 3,11 0,3 -1,6 -2,9 -1,3 -4,5 -6,7 -3,2 -6,3 -10,3 -2,0 -8,0 -17,0l-24 0 0 -70zm14 12l0 16 9 0c6,0 9,0 10,0 2,0 4,-1 6,-3 1,-1 2,-3 2,-5 0,-2 -1,-4 -2,-5 -1,-1 -3,-2 -5,-2 -1,0 -5,0 -12,0l-8 0zm0 28l0 19 13 0c5,0 8,0 10,0 2,0 4,-1 5,-3 1,-2 2,-3 2,-6 0,-2 -1,-4 -2,-5 -1,-1 -2,-3 -4,-3 -2,-1 -6,-1 -13,-1l-11 0zm66 -5l-12 -2c1,-5 4,-9 7,-11 3,-2 8,-4 15,-4 6,0 10,1 13,2 3,1 5,3 6,5 1,2 2,6 2,12l0 16c0,4 0,8 1,10 0,2 1,4 2,7l-13 0c0,-1 -1,-2 -1,-4 0,-1 0,-1 0,-2 -2,2 -5,4 -7,5 -3,1 -5,2 -8,2 -5,0 -9,-1 -12,-4 -3,-3 -5,-6 -5,-11 0,-3 1,-5 2,-8 1,-2 3,-4 6,-5 2,-1 6,-2 11,-3 6,-1 11,-2 13,-3l0 -1c0,-3 -1,-4 -2,-6 -1,-1 -4,-2 -7,-2 -2,0 -4,0 -6,1 -1,1 -2,3 -3,5zm18 11c-2,1 -4,1 -8,2 -4,1 -6,2 -7,2 -2,1 -3,3 -3,5 0,2 1,4 2,5 1,1 3,2 5,2 2,0 5,-1 7,-2 2,-1 3,-3 3,-4 0,-1 1,-3 1,-7l0 -3zm73 24l-13 0 0 -26c0,-5 0,-9 -1,-11 -1,-2 -2,-3 -3,-4 -1,-1 -3,-1 -5,-1 -2,0 -4,1 -6,2 -2,1 -3,3 -4,5 -1,2 -1,6 -1,12l0 23 -13 0 0 -51 12 0 0 7c4,-6 10,-9 17,-9 3,0 6,1 8,2 2,1 4,2 6,4 1,2 2,4 3,6 0,2 1,5 1,9l0 32zm13 0l0 -70 13 0 0 37 16 -18 17 0 -17 19 19 32 -15 0 -13 -23 -6 7 0 16 -13 0zm82 0l0 -70 14 0 0 70 -14 0zm74 0l-13 0 0 -26c0,-5 0,-9 -1,-11 -1,-2 -2,-3 -3,-4 -1,-1 -3,-1 -5,-1 -2,0 -4,1 -6,2 -2,1 -3,3 -4,5 -1,2 -1,6 -1,12l0 23 -13 0 0 -51 12 0 0 7c4,-6 10,-9 17,-9 3,0 6,1 8,2 2,1 4,2 6,4 1,2 2,4 3,6 0,2 1,5 1,9l0 32zm60 0l-12 0 0 -7c-2,3 -5,5 -7,7 -3,1 -6,2 -9,2 -6,0 -11,-2 -15,-7 -4,-5 -6,-11 -6,-20 0,-9 2,-15 6,-20 4,-4 9,-7 15,-7 6,0 11,2 15,7l0 -25 13 0 0 70zm-36 -26c0,5 1,9 2,12 2,4 5,5 9,5 3,0 6,-1 8,-4 2,-3 3,-7 3,-12 0,-6 -1,-10 -3,-13 -2,-3 -5,-4 -8,-4 -3,0 -6,1 -8,4 -2,3 -3,6 -3,11zm46 0c0,-4 1,-9 3,-13 2,-4 5,-7 9,-10 4,-2 9,-3 14,-3 8,0 14,2 19,7 5,5 7,11 7,19 0,8 -2,14 -7,19 -5,5 -11,8 -19,8 -5,0 -9,-1 -13,-3 -4,-2 -7,-5 -10,-9 -2,-4 -3,-9 -3,-15zm14 1c0,5 1,9 4,12 2,3 5,4 9,4 3,0 6,-1 9,-4 2,-3 4,-7 4,-12 0,-5 -1,-9 -4,-12 -2,-3 -5,-4 -9,-4 -4,0 -6,1 -9,4 -2,3 -4,7 -4,12zm95 25l-13 0 0 -26c0,-5 0,-9 -1,-11 -1,-2 -2,-3 -3,-4 -1,-1 -3,-1 -5,-1 -2,0 -4,1 -6,2 -2,1 -3,3 -4,5 -1,2 -1,6 -1,12l0 23 -13 0 0 -51 12 0 0 7c4,-6 10,-9 17,-9 3,0 6,1 8,2 2,1 4,2 6,4 1,2 2,4 3,6 1,2 1,5 1,9l0 32zm43 -16l13 2c-2,5 -4,9 -8,11 -4,3 -8,4 -14,4 -9,0 -15,-3 -20,-9 -3,-5 -5,-10 -5,-18 0,-8 2,-15 7,-20 4,-5 10,-7 17,-7 8,0 14,2 18,7 4,5 6,13 6,23l-34 0c0,4 1,7 3,9 2,2 5,3 8,3 2,0 4,-1 5,-2 1,-1 3,-3 3,-6zm1 -14c0,-4 -1,-7 -3,-9 -2,-2 -4,-3 -7,-3 -3,0 -5,1 -7,3 -2,2 -3,5 -3,9l20 0zm20 15l14 -2c1,3 2,5 4,6 2,1 4,2 7,2 3,0 6,-1 8,-2 1,-1 2,-2 2,-4 0,-1 0,-2 -1,-3 -1,-1 -2,-1 -4,-2 -11,-2 -18,-5 -21,-7 -4,-3 -6,-7 -6,-11 0,-4 2,-8 5,-11 3,-3 9,-5 16,-5 7,0 12,1 16,3 3,2 6,6 7,10l-13 2c-1,-2 -2,-4 -3,-5 -2,-1 -4,-2 -7,-2 -4,0 -6,0 -8,1 -1,1 -2,2 -2,3 0,1 0,2 1,2 1,1 5,2 13,4 7,2 12,4 15,6 3,2 4,6 4,10 0,5 -2,9 -6,12 -4,3 -10,5 -17,5 -7,0 -12,-1 -16,-4 -4,-3 -7,-7 -8,-11zm59 -43l0 -12 13 0 0 12 -13 0zm0 58l0 -51 13 0 0 51 -13 0zm37 -35l-12 -2c1,-5 4,-9 7,-11 3,-2 8,-4 15,-4 6,0 10,1 13,2 3,1 5,3 6,5 1,2 2,6 2,12l0 16c0,4 0,8 1,10 0,2 1,4 2,7l-13 0c0,-1 -1,-2 -1,-4 0,-1 0,-1 0,-2 -2,2 -5,4 -7,5 -3,1 -5,2 -8,2 -5,0 -9,-1 -12,-4 -3,-3 -5,-6 -5,-11 0,-3 1,-5 2,-8 1,-2 3,-4 6,-5 2,-1 6,-2 11,-3 6,-1 11,-2 13,-3l0 -1c0,-3 -1,-4 -2,-6 -1,-1 -4,-2 -7,-2 -2,0 -4,0 -6,1 -1,1 -2,3 -3,5zm18 11c-2,1 -4,1 -8,2 -4,1 -6,2 -7,2 -2,1 -3,3 -3,5 0,2 1,4 2,5 1,1 3,2 5,2 2,0 5,-1 7,-2 2,-1 3,-3 3,-4 0,-1 1,-3 1,-7l0 -3z"/>
   <g>
    <path class="fil0" d="M121 797l-13 0 -2 -54 -10 54 -12 0 13 -65 19 0 2 44 20 -44 19 0 -12 65 -12 0 11 -54 -24 54zm83 -19l-32 0c0,0 0,1 0,1 0,3 1,6 3,8 2,2 4,3 7,3 4,0 8,-2 10,-6l11 2c-2,5 -5,8 -9,10 -4,2 -8,3 -12,3 -6,0 -11,-2 -15,-6 -4,-4 -6,-9 -6,-16 0,-6 2,-12 5,-17 5,-7 12,-10 21,-10 6,0 10,2 14,5 3,4 5,9 5,15 0,3 0,6 -1,8zm-11 -8c0,-1 0,-1 0,-1 0,-4 -1,-6 -2,-8 -2,-2 -4,-3 -6,-3 -3,0 -5,1 -7,3 -2,2 -3,5 -4,9l20 0zm25 -20l12 0 -1 6c5,-5 10,-7 15,-7 4,0 6,1 8,2 2,1 3,4 4,6 2,-2 4,-4 7,-6 3,-2 6,-2 9,-2 4,0 7,1 9,3 2,2 3,5 3,8 0,2 0,4 -1,8l-6 29 -13 0 6 -29c1,-4 1,-6 1,-6 0,-1 0,-2 -1,-3 -1,-1 -2,-1 -4,-1 -3,0 -6,2 -8,5 -2,2 -3,7 -5,13l-4 21 -13 0 6 -28c1,-3 1,-5 1,-6 0,-1 0,-2 -1,-3 -1,-1 -2,-1 -3,-1 -1,0 -3,0 -4,1 -1,1 -3,2 -4,3 -1,1 -2,3 -3,6 0,1 -1,3 -2,7l-4 21 -13 0 10 -47zm116 27l-32 0c0,0 0,1 0,1 0,3 1,6 3,8 2,2 4,3 7,3 4,0 8,-2 10,-6l11 2c-2,5 -5,8 -9,10 -4,2 -8,3 -12,3 -6,0 -11,-2 -15,-6 -4,-4 -6,-9 -6,-16 0,-6 2,-12 5,-17 5,-7 12,-10 21,-10 6,0 10,2 14,5 3,4 5,9 5,15 0,3 0,6 -1,8zm-11 -8c0,-1 0,-1 0,-1 0,-4 -1,-6 -2,-8 -2,-2 -4,-3 -6,-3 -3,0 -5,1 -7,3 -2,2 -3,5 -4,9l20 0zm15 27l14 -65 13 0 -14 65 -13 0zm39 -65l13 0 -2 11 -13 0 2 -11zm-4 18l13 0 -10 47 -13 0 10 -47zm28 47l-13 0 14 -65 13 0 -5 23c3,-2 6,-4 8,-5 2,-1 5,-1 8,-1 4,0 7,1 9,3 2,2 3,5 3,9 0,2 -1,5 -1,9l-6 27 -13 0 6 -28c1,-3 1,-5 1,-6 0,-2 -1,-3 -1,-4 -1,-1 -2,-1 -4,-1 -2,0 -4,1 -6,2 -3,2 -5,4 -6,7 -1,2 -2,5 -3,11l-4 19zm60 -34l-12 -1c1,-4 4,-7 7,-10 4,-2 8,-4 14,-4 6,0 10,1 13,4 3,2 4,5 4,9 0,1 0,3 0,4 0,2 -1,6 -3,13 -1,6 -2,10 -2,12 0,2 0,4 1,7l-12 0c0,-2 -1,-3 -1,-5 -2,2 -4,4 -6,5 -2,1 -5,2 -7,2 -4,0 -7,-1 -10,-4 -3,-3 -4,-6 -4,-10 0,-4 1,-8 4,-11 3,-3 8,-4 15,-5 6,-1 10,-1 12,-2 1,-2 1,-3 1,-4 0,-1 -1,-2 -2,-3 -1,-1 -3,-1 -5,-1 -2,0 -4,0 -5,1 -1,1 -2,2 -3,4zm12 12c-1,0 -2,0 -3,1 -6,1 -10,2 -12,3 -1,1 -2,3 -2,4 0,2 1,3 2,4 1,1 2,2 4,2 2,0 4,0 5,-1 2,-1 3,-2 4,-4 1,-1 2,-4 2,-7l0 -2zm29 -25l12 0 -2 9c4,-7 9,-10 14,-10 2,0 4,0 6,1l-5 10c-1,0 -2,-1 -4,-1 -2,0 -4,1 -7,2 -2,2 -4,4 -5,7 -1,3 -3,7 -4,13l-3 15 -13 0 10 -47zm44 13l-12 -1c1,-4 4,-7 7,-10 4,-2 8,-4 14,-4 6,0 10,1 13,4 3,2 4,5 4,9 0,1 0,3 0,4 0,2 -1,6 -3,13 -1,6 -2,10 -2,12 0,2 0,4 1,7l-12 0c0,-2 -1,-3 -1,-5 -2,2 -4,4 -6,5 -2,1 -5,2 -7,2 -4,0 -7,-1 -10,-4 -3,-3 -4,-6 -4,-10 0,-4 1,-8 4,-11 3,-3 8,-4 15,-5 6,-1 10,-1 12,-2 1,-2 1,-3 1,-4 0,-1 -1,-2 -2,-3 -1,-1 -3,-1 -5,-1 -2,0 -4,0 -5,1 -1,1 -2,2 -3,4zm12 12c-1,0 -2,0 -3,1 -6,1 -10,2 -12,3 -1,1 -2,3 -2,4 0,2 1,3 2,4 1,1 2,2 4,2 2,0 4,0 5,-1 2,-1 3,-2 4,-4 1,-1 2,-4 2,-7l0 -2zm45 22l14 -65 13 0 -6 27 30 -27 18 0 -29 25 21 39 -15 0 -16 -31 -13 11 -4 20 -13 0zm111 -19l-32 0c0,0 0,1 0,1 0,3 1,6 3,8 2,2 4,3 7,3 4,0 8,-2 10,-6l11 2c-2,5 -5,8 -9,10 -4,2 -8,3 -12,3 -6,0 -11,-2 -15,-6 -4,-4 -6,-9 -6,-16 0,-6 2,-12 5,-17 5,-7 12,-10 21,-10 6,0 10,2 14,5 3,4 5,9 5,15 0,3 0,6 -1,8zm-11 -8c0,-1 0,-1 0,-1 0,-4 -1,-6 -2,-8 -2,-2 -4,-3 -6,-3 -3,0 -5,1 -7,3 -2,2 -3,5 -4,9l20 0zm14 14l12 -2c1,3 2,4 4,6 2,1 4,2 7,2 3,0 5,-1 7,-2 1,-1 2,-2 2,-3 0,-1 0,-2 -1,-2 -1,-1 -2,-1 -5,-2 -8,-3 -12,-5 -14,-6 -3,-2 -4,-5 -4,-9 0,-4 1,-7 4,-10 4,-4 10,-6 17,-6 6,0 11,1 14,3 3,2 5,5 6,9l-12 2c-1,-2 -2,-3 -3,-4 -2,-1 -4,-2 -7,-2 -3,0 -5,0 -6,1 -1,1 -2,2 -2,3 0,1 1,2 2,3 1,0 3,1 7,2 6,2 10,4 12,5 3,2 4,5 4,9 0,4 -2,8 -6,12 -4,3 -9,5 -16,5 -7,0 -12,-1 -16,-4 -4,-2 -6,-6 -8,-10zm65 -52l13 0 -2 11 -13 0 2 -11zm-4 18l13 0 -10 47 -13 0 10 -47zm25 0l12 0 -1 6c3,-3 6,-5 8,-6 3,-1 5,-2 8,-2 4,0 7,1 9,3 2,2 3,5 3,9 0,2 -1,5 -2,9l-6 26 -13 0 6 -26c1,-4 1,-6 1,-7 0,-2 0,-3 -1,-4 -1,-1 -2,-1 -4,-1 -2,0 -4,1 -6,2 -2,2 -4,4 -5,6 -1,2 -2,6 -3,11l-4 19 -13 0 10 -47zm63 13l-12 -1c1,-4 4,-7 7,-10 4,-2 8,-4 14,-4 6,0 10,1 13,4 3,2 4,5 4,9 0,1 0,3 0,4 0,2 -1,6 -3,13 -1,6 -2,10 -2,12 0,2 0,4 1,7l-12 0c0,-2 -1,-3 -1,-5 -2,2 -4,4 -6,5 -2,1 -5,2 -7,2 -4,0 -7,-1 -10,-4 -3,-3 -4,-6 -4,-10 0,-4 1,-8 4,-11 3,-3 8,-4 15,-5 6,-1 10,-1 12,-2 1,-2 1,-3 1,-4 0,-1 -1,-2 -2,-3 -1,-1 -3,-1 -5,-1 -2,0 -4,0 -5,1 -1,1 -2,2 -3,4zm12 12c-1,0 -2,0 -3,1 -6,1 -10,2 -12,3 -1,1 -2,3 -2,4 0,2 1,3 2,4 1,1 2,2 4,2 2,0 4,0 5,-1 2,-1 3,-2 4,-4 1,-1 2,-4 2,-7l0 -2zm30 -25l12 0 -1 6c5,-5 10,-7 15,-7 4,0 6,1 8,2 2,1 3,4 4,6 2,-2 4,-4 7,-6 3,-2 6,-2 9,-2 4,0 7,1 9,3 2,2 3,5 3,8 0,2 0,4 -1,8l-6 29 -13 0 6 -29c1,-4 1,-6 1,-6 0,-1 0,-2 -1,-3 -1,-1 -2,-1 -4,-1 -3,0 -6,2 -8,5 -2,2 -3,7 -5,13l-4 21 -13 0 6 -28c1,-3 1,-5 1,-6 0,-1 0,-2 -1,-3 -1,-1 -2,-1 -3,-1 -1,0 -3,0 -4,1 -1,1 -3,2 -4,3 -1,1 -2,3 -3,6 0,1 -1,3 -2,7l-4 21 -13 0 10 -47zm70 47l14 -65 13 0 -5 21c2,-2 5,-3 7,-4 2,-1 4,-1 7,-1 5,0 9,2 12,5 3,3 4,8 4,14 0,4 -1,8 -2,12 -1,4 -3,7 -6,10 -2,3 -5,4 -7,6 -3,1 -5,2 -8,2 -7,0 -12,-3 -15,-9l-2 8 -11 0zm17 -19c0,3 1,6 3,8 2,2 4,3 6,3 2,0 4,-1 6,-2 2,-2 4,-4 5,-7 1,-3 2,-7 2,-10 0,-3 -1,-6 -3,-8 -2,-2 -4,-3 -6,-3 -3,0 -6,1 -8,4 -3,4 -5,9 -5,15zm49 -28l13 0 -6 28c-1,3 -1,5 -1,6 0,1 0,3 1,3 1,1 2,1 3,1 1,0 2,0 3,-1 1,0 2,-1 3,-2 1,-1 2,-2 3,-3 1,-1 2,-3 2,-5 1,-1 1,-4 2,-6l5 -22 13 0 -11 47 -12 0 1 -6c-5,5 -10,7 -16,7 -4,0 -6,-1 -8,-3 -2,-2 -3,-5 -3,-9 0,-2 1,-5 2,-10l6 -26zm55 0l12 0 -1 6c3,-3 6,-5 8,-6 3,-1 5,-2 8,-2 4,0 7,1 9,3 2,2 3,5 3,9 0,2 -1,5 -2,9l-6 26 -13 0 6 -26c1,-4 1,-6 1,-7 0,-2 0,-3 -1,-4 -1,-1 -2,-1 -4,-1 -2,0 -4,1 -6,2 -2,2 -4,4 -5,6 -1,2 -2,6 -3,11l-4 19 -13 0 10 -47zm44 49l13 2c0,1 0,2 1,3 0,1 1,1 2,2 1,0 2,1 4,1 3,0 5,-1 7,-2 1,-1 2,-2 3,-4 0,-1 1,-4 2,-8l0 -2c-5,4 -9,5 -14,5 -5,0 -8,-2 -11,-5 -3,-3 -4,-8 -4,-14 0,-5 1,-11 3,-15 2,-5 5,-8 8,-10 4,-2 7,-4 11,-4 3,0 6,1 9,2 3,2 5,4 6,7l2 -8 12 0 -7 39c-1,6 -2,11 -3,13 -1,3 -2,5 -3,6 -1,2 -3,3 -5,4 -2,1 -4,2 -6,2 -2,0 -5,1 -8,1 -7,0 -12,-1 -15,-3 -3,-2 -5,-6 -5,-11 0,-1 0,-1 0,-2zm15 -23c0,4 1,6 2,8 2,2 4,3 6,3 2,0 4,-1 7,-3 2,-2 4,-4 5,-7 1,-3 2,-6 2,-9 0,-3 -1,-6 -3,-8 -2,-2 -4,-3 -6,-3 -2,0 -4,1 -6,3 -2,2 -3,5 -5,8 -1,3 -1,5 -1,8zm59 -14l-12 -1c1,-4 4,-7 7,-10 4,-2 8,-4 14,-4 6,0 10,1 13,4 3,2 4,5 4,9 0,1 0,3 0,4 0,2 -1,6 -3,13 -1,6 -2,10 -2,12 0,2 0,4 1,7l-12 0c0,-2 -1,-3 -1,-5 -2,2 -4,4 -6,5 -2,1 -5,2 -7,2 -4,0 -7,-1 -10,-4 -3,-3 -4,-6 -4,-10 0,-4 1,-8 4,-11 3,-3 8,-4 15,-5 6,-1 10,-1 12,-2 1,-2 1,-3 1,-4 0,-1 -1,-2 -2,-3 -1,-1 -3,-1 -5,-1 -2,0 -4,0 -5,1 -1,1 -2,2 -3,4zm12 12c-1,0 -2,0 -3,1 -6,1 -10,2 -12,3 -1,1 -2,3 -2,4 0,2 1,3 2,4 1,1 2,2 4,2 2,0 4,0 5,-1 2,-1 3,-2 4,-4 1,-1 2,-4 2,-7l0 -2zm30 -25l12 0 -1 6c3,-3 6,-5 8,-6 3,-1 5,-2 8,-2 4,0 7,1 9,3 2,2 3,5 3,9 0,2 -1,5 -2,9l-6 26 -13 0 6 -26c1,-4 1,-6 1,-7 0,-2 0,-3 -1,-4 -1,-1 -2,-1 -4,-1 -2,0 -4,1 -6,2 -2,2 -4,4 -5,6 -1,2 -2,6 -3,11l-4 19 -13 0 10 -47zm83 47l-13 0 14 -65 26 0c5,0 8,1 11,2 3,1 5,3 6,5 2,3 2,6 2,9 0,3 -1,6 -2,10 -1,3 -3,6 -5,7 -2,2 -4,3 -6,4 -2,1 -5,2 -9,2 -2,0 -6,0 -12,0l-8 0 -5 25zm7 -35l4 0c7,0 12,0 14,-1 2,-1 4,-2 6,-4 1,-2 2,-4 2,-6 0,-2 0,-3 -1,-4 -1,-1 -2,-2 -3,-2 -1,0 -4,-1 -8,-1l-10 0 -4 18zm85 16l-32 0c0,0 0,1 0,1 0,3 1,6 3,8 2,2 4,3 7,3 4,0 8,-2 10,-6l11 2c-2,5 -5,8 -9,10 -4,2 -8,3 -12,3 -6,0 -11,-2 -15,-6 -4,-4 -6,-9 -6,-16 0,-6 2,-12 5,-17 5,-7 12,-10 21,-10 6,0 10,2 14,5 3,4 5,9 5,15 0,3 0,6 -1,8zm-11 -8c0,-1 0,-1 0,-1 0,-4 -1,-6 -2,-8 -2,-2 -4,-3 -6,-3 -3,0 -5,1 -7,3 -2,2 -3,5 -4,9l20 0zm25 -20l12 0 -1 6c3,-3 6,-5 8,-6 3,-1 5,-2 8,-2 4,0 7,1 9,3 2,2 3,5 3,9 0,2 -1,5 -2,9l-6 26 -13 0 6 -26c1,-4 1,-6 1,-7 0,-2 0,-3 -1,-4 -1,-1 -2,-1 -4,-1 -2,0 -4,1 -6,2 -2,2 -4,4 -5,6 -1,2 -2,6 -3,11l-4 19 -13 0 10 -47zm44 49l13 2c0,1 0,2 1,3 0,1 1,1 2,2 1,0 2,1 4,1 3,0 5,-1 7,-2 1,-1 2,-2 3,-4 0,-1 1,-4 2,-8l0 -2c-5,4 -9,5 -14,5 -5,0 -8,-2 -11,-5 -3,-3 -4,-8 -4,-14 0,-5 1,-11 3,-15 2,-5 5,-8 8,-10 4,-2 7,-4 11,-4 3,0 6,1 9,2 3,2 5,4 6,7l2 -8 12 0 -7 39c-1,6 -2,11 -3,13 -1,3 -2,5 -3,6 -1,2 -3,3 -5,4 -2,1 -4,2 -6,2 -2,0 -5,1 -8,1 -7,0 -12,-1 -15,-3 -3,-2 -5,-6 -5,-11 0,-1 0,-1 0,-2zm15 -23c0,4 1,6 2,8 2,2 4,3 6,3 2,0 4,-1 7,-3 2,-2 4,-4 5,-7 1,-3 2,-6 2,-9 0,-3 -1,-6 -3,-8 -2,-2 -4,-3 -6,-3 -2,0 -4,1 -6,3 -2,2 -3,5 -5,8 -1,3 -1,5 -1,8zm54 20l-13 0 14 -65 13 0 -5 23c3,-2 6,-4 8,-5 2,-1 5,-1 8,-1 4,0 7,1 9,3 2,2 3,5 3,9 0,2 -1,5 -1,9l-6 27 -13 0 6 -28c1,-3 1,-5 1,-6 0,-2 0,-3 -1,-4 -1,-1 -2,-1 -4,-1 -2,0 -4,1 -6,2 -3,2 -5,4 -6,7 -1,2 -2,5 -3,11l-4 19zm60 -34l-12 -1c1,-4 4,-7 7,-10 4,-2 8,-4 14,-4 6,0 10,1 13,4 3,2 4,5 4,9 0,1 0,3 0,4 0,2 -1,6 -3,13 -1,6 -2,10 -2,12 0,2 0,4 1,7l-12 0c0,-2 -1,-3 -1,-5 -2,2 -4,4 -6,5 -2,1 -5,2 -7,2 -4,0 -7,-1 -10,-4 -3,-3 -4,-6 -4,-10 0,-4 1,-8 4,-11 3,-3 8,-4 15,-5 6,-1 10,-1 12,-2 1,-2 1,-3 1,-4 0,-1 -1,-2 -2,-3 -1,-1 -3,-1 -5,-1 -2,0 -4,0 -5,1 -1,1 -2,2 -3,4zm12 12c-1,0 -2,0 -3,1 -6,1 -10,2 -12,3 -1,1 -2,3 -2,4 0,2 1,3 2,4 1,1 2,2 4,2 2,0 4,0 5,-1 2,-1 3,-2 4,-4 1,-1 2,-4 2,-7l0 -2zm19 9l12 -2c1,3 2,4 4,6 2,1 4,2 7,2 3,0 5,-1 7,-2 1,-1 2,-2 2,-3 0,-1 0,-2 -1,-2 -1,-1 -2,-1 -5,-2 -8,-3 -12,-5 -14,-6 -3,-2 -4,-5 -4,-9 0,-4 1,-7 4,-10 4,-4 10,-6 17,-6 6,0 11,1 14,3 3,2 5,5 6,9l-12 2c-1,-2 -2,-3 -3,-4 -2,-1 -4,-2 -7,-2 -3,0 -5,0 -6,1 -1,1 -2,2 -2,3 0,1 1,2 2,3 1,0 3,1 7,2 6,2 10,4 12,5 3,2 4,5 4,9 0,4 -2,8 -6,12 -4,3 -9,5 -16,5 -7,0 -12,-1 -16,-4 -4,-2 -6,-6 -8,-10zm65 -52l13 0 -2 11 -13 0 2 -11zm-4 18l13 0 -10 47 -13 0 10 -47zm15 47l14 -65 13 0 -14 65 -13 0z"/>
    <path class="fil0" d="M1774 764l-12 -1c1,-4 4,-7 7,-10 4,-2 8,-4 14,-4 6,0 10,1 13,4 3,2 4,5 4,9 0,1 0,3 0,4 0,2 -1,6 -3,13 -1,6 -2,10 -2,12 0,2 0,4 1,7l-12 0c0,-2 -1,-3 -1,-5 -2,2 -4,4 -6,5 -2,1 -5,2 -7,2 -4,0 -7,-1 -10,-4 -3,-3 -4,-6 -4,-10 0,-4 1,-8 4,-11 3,-3 8,-4 15,-5 6,-1 10,-1 12,-2 1,-2 1,-3 1,-4 0,-1 -1,-2 -2,-3 -1,-1 -3,-1 -5,-1 -2,0 -4,0 -5,1 -1,1 -2,2 -3,4zm12 12c-1,0 -2,0 -3,1 -6,1 -10,2 -12,3 -1,1 -2,3 -2,4 0,2 1,3 2,4 1,1 2,2 4,2 2,0 4,0 5,-1 2,-1 3,-2 4,-4 1,-1 2,-4 2,-7l0 -2zm30 -25l12 0 -1 6c3,-3 6,-5 8,-6 3,-1 5,-2 8,-2 4,0 7,1 9,3 2,2 3,5 3,9 0,2 -1,5 -2,9l-6 26 -13 0 6 -26c1,-4 1,-6 1,-7 0,-2 0,-3 -1,-4 -1,-1 -2,-1 -4,-1 -2,0 -4,1 -6,2 -2,2 -4,4 -5,6 -1,2 -2,6 -3,11l-4 19 -13 0 10 -47zm83 47l-13 0 14 -65 26 0c5,0 8,1 11,2 3,1 5,3 6,5 2,3 2,6 2,9 0,3 -1,6 -2,10 -1,3 -3,6 -5,7 -2,2 -4,3 -6,4 -2,1 -5,2 -9,2 -2,0 -6,0 -12,0l-8 0 -5 25zm7 -35l4 0c7,0 12,0 14,-1 2,-1 4,-2 6,-4 1,-2 2,-4 2,-6 0,-2 0,-3 -1,-4 -1,-1 -2,-2 -3,-2 -1,0 -4,-1 -8,-1l-10 0 -4 18zm85 16l-32 0c0,0 0,1 0,1 0,3 1,6 3,8 2,2 4,3 7,3 4,0 8,-2 10,-6l11 2c-2,5 -5,8 -9,10 -4,2 -8,3 -12,3 -6,0 -11,-2 -15,-6 -4,-4 -6,-9 -6,-16 0,-6 2,-12 5,-17 5,-7 12,-10 21,-10 6,0 10,2 14,5 3,4 5,9 5,15 0,3 0,6 -1,8zm-11 -8c0,-1 0,-1 0,-1 0,-4 -1,-6 -2,-8 -2,-2 -4,-3 -6,-3 -3,0 -5,1 -7,3 -2,2 -3,5 -4,9l20 0zm14 14l12 -2c1,3 2,4 4,6 2,1 4,2 7,2 3,0 5,-1 7,-2 1,-1 2,-2 2,-3 0,-1 0,-2 -1,-2 -1,-1 -2,-1 -5,-2 -8,-3 -12,-5 -14,-6 -3,-2 -4,-5 -4,-9 0,-4 1,-7 4,-10 4,-4 10,-6 17,-6 6,0 11,1 14,3 3,2 5,5 6,9l-12 2c-1,-2 -2,-3 -3,-4 -2,-1 -4,-2 -7,-2 -3,0 -5,0 -6,1 -1,1 -2,2 -2,3 0,1 1,2 2,3 1,0 3,1 7,2 6,2 10,4 12,5 3,2 4,5 4,9 0,4 -2,8 -6,12 -4,3 -9,5 -16,5 -7,0 -12,-1 -16,-4 -4,-2 -6,-6 -8,-10zm97 -6l-32 0c0,0 0,1 0,1 0,3 1,6 3,8 2,2 4,3 7,3 4,0 8,-2 10,-6l11 2c-2,5 -5,8 -9,10 -4,2 -8,3 -12,3 -6,0 -11,-2 -15,-6 -4,-4 -6,-9 -6,-16 0,-6 2,-12 5,-17 5,-7 12,-10 21,-10 6,0 10,2 14,5 3,4 5,9 5,15 0,3 0,6 -1,8zm-11 -8c0,-1 0,-1 0,-1 0,-4 -1,-6 -2,-8 -2,-2 -4,-3 -6,-3 -3,0 -5,1 -7,3 -2,2 -3,5 -4,9l20 0zm24 -20l12 0 -2 9c4,-7 9,-10 14,-10 2,0 4,0 6,1l-5 10c-1,0 -2,-1 -4,-1 -2,0 -4,1 -7,2 -2,2 -4,4 -5,7 -1,3 -3,7 -4,13l-3 15 -13 0 10 -47zm29 9l2 -9 6 0 2 -7 14 -9 -3 16 8 0 -2 9 -8 0 -4 20c-1,4 -1,6 -1,6 0,1 0,2 1,2 1,1 2,1 3,1 1,0 2,0 4,0l-2 9c-2,0 -4,1 -7,1 -4,0 -8,-1 -10,-3 -2,-2 -3,-4 -3,-7 0,-1 1,-5 2,-10l4 -19 -6 0zm45 4l-12 -1c1,-4 4,-7 7,-10 4,-2 8,-4 14,-4 6,0 10,1 13,4 3,2 4,5 4,9 0,1 0,3 0,4 0,2 -1,6 -3,13 -1,6 -2,10 -2,12 0,2 0,4 1,7l-12 0c0,-2 -1,-3 -1,-5 -2,2 -4,4 -6,5 -2,1 -5,2 -7,2 -4,0 -7,-1 -10,-4 -3,-3 -4,-6 -4,-10 0,-4 1,-8 4,-11 3,-3 8,-4 15,-5 6,-1 10,-1 12,-2 1,-2 1,-3 1,-4 0,-1 -1,-2 -2,-3 -1,-1 -3,-1 -5,-1 -2,0 -4,0 -5,1 -1,1 -2,2 -3,4zm12 12c-1,0 -2,0 -3,1 -6,1 -10,2 -12,3 -1,1 -2,3 -2,4 0,2 1,3 2,4 1,1 2,2 4,2 2,0 4,0 5,-1 2,-1 3,-2 4,-4 1,-1 2,-4 2,-7l0 -2z"/>
   </g>
   <g>
    <g>
     <path class="fil1" d="M339 48c161,0 292,131 292,292 0,161 -131,292 -292,292 -161,0 -292,-131 -292,-292 0,-161 131,-292 292,-292zm83 226l0 0zm-136 -52l-34 0c-15,0 -27,12 -27,27l0 173 0 33 0 32 0 39 1 0 31 0 196 0c36,0 66,-30 66,-66l0 -241c0,-36 -30,-66 -66,-66l-226 0c-36,0 -66,30 -66,66l0 241c0,24 13,46 33,57l0 -64 0 -111 0 -116c0,-19 15,-34 34,-34l223 0c19,0 34,15 34,34l0 227c0,19 -15,34 -34,34l-194 0 0 -32 0 -33 0 -148c0,-11 9,-19 19,-19l10 0 73 0 7 0 10 0 18 0 8 0c1,0 1,0 2,0 8,0 15,5 17,13 0,2 1,3 1,5l0 0 0 0 0 0 0 0 0 1c-1,9 -8,16 -18,16l-27 0 -18 0 -40 0c-15,0 -28,12 -28,28l0 41c0,15 12,28 28,28l40 0 38 0c16,0 24,6 25,16 0,10 -8,18 -18,19l-45 0 -62 0 0 33 130 0c15,0 27,-12 27,-27l0 -42c0,-16 -12,-28 -27,-28l-5 0 -97 0c-2,0 -4,-2 -4,-4l0 -29c0,-2 2,-4 4,-4l34 0 7 0 4 0 6 0 46 0 5 0c15,0 27,-12 27,-27l0 -2 0 -41 0 0 0 0 0 -1c-1,-11 -8,-21 -18,-24 -2,-1 -5,-1 -7,-2l-1 0 -1 0 0 0 0 0 -32 0 -29 0 -7 0 -73 0z"/>
     <path class="fil2" d="M193 452l0 -111 0 -116c0,-19 15,-34 34,-34l223 0c19,0 34,15 34,34l0 227c0,19 -15,34 -34,34l-194 0 0 -32 0 -33 0 -148c0,-11 9,-19 19,-19l10 0 73 0 7 0 10 0 18 0 8 0c1,0 1,0 2,0 8,0 15,5 17,13 0,2 1,3 1,5l0 0 0 0 0 0 0 0 0 1c-1,9 -8,16 -18,16l-27 0 -18 0 -40 0c-15,0 -28,12 -28,28l0 41c0,15 12,28 28,28l40 0 38 0c16,0 24,6 25,16 0,10 -8,18 -18,19l-45 0 -62 0 0 33 130 0c15,0 27,-12 27,-27l0 -42c0,-16 -12,-28 -27,-28l-5 0 -97 0c-2,0 -4,-2 -4,-4l0 -29c0,-2 2,-4 4,-4l34 0 7 0 4 0 6 0 46 0 5 0c15,0 27,-12 27,-27l0 -2 0 -41 0 0 0 0 0 -1c-1,-11 -8,-21 -18,-24 -2,-1 -5,-1 -7,-2l-1 0 -1 0 0 0 0 0 -32 0 -29 0 -7 0 -73 0 -34 0c-15,0 -27,12 -27,27l0 173 0 33 0 32 0 39 1 0 31 0 196 0c36,0 66,-30 66,-66l0 -241c0,-36 -30,-66 -66,-66l-226 0c-36,0 -66,30 -66,66l0 241c0,24 13,46 33,57l0 -64z"/>
    </g>
    <polygon class="fil3" points="16,17 661,17 661,662 16,662 "/>
   </g>
  </g>
 </g>
</svg>
