<?xml version="1.0" encoding="UTF-8"?>
<!DOCTYPE svg PUBLIC "-//W3C//DTD SVG 1.1//EN" "http://www.w3.org/Graphics/SVG/1.1/DTD/svg11.dtd">
<!-- Creator: CorelDRAW 2017 -->
<svg xmlns="http://www.w3.org/2000/svg" xml:space="preserve" width="0.426661in" height="0.426661in" version="1.1" style="shape-rendering:geometricPrecision; text-rendering:geometricPrecision; image-rendering:optimizeQuality; fill-rule:evenodd; clip-rule:evenodd"
viewBox="0 0 427 427"
 xmlns:xlink="http://www.w3.org/1999/xlink">
 <defs>
  <style type="text/css">
   <![CDATA[
    .fil0 {fill:#316C96}
   ]]>
  </style>
 </defs>
 <g id="Layer_x0020_1">
  <metadata id="CorelCorpID_0Corel-Layer"/>
  <path class="fil0" d="M73 114c10,-13 17,-21 29,-32 3,-3 6,-6 10,-8 5,-3 8,-5 13,-9 2,-1 5,-3 7,-4 2,-1 4,-2 7,-3 3,-2 17,-7 21,-8l32 -7c1,0 0,0 1,0l1 0c10,-1 20,-1 29,0l9 1c3,0 5,0 7,1 3,1 5,1 8,2 2,0 5,1 8,2l8 2c3,1 5,2 8,3 2,1 2,1 4,1 1,1 3,1 4,2 1,0 3,1 4,2 21,10 36,20 52,36l12 13c3,4 15,22 17,27 1,3 4,7 5,10 1,4 3,7 4,11 1,2 1,2 1,4 1,3 2,7 3,11l5 26c0,0 0,1 0,1l1 16c0,3 0,5 0,7 0,3 -1,19 -2,22 -1,3 -1,5 -1,8 0,2 -1,5 -2,8 -1,2 0,2 -1,4 0,1 -1,3 -1,4 -1,3 -2,5 -3,8 -4,12 -14,31 -21,40 -13,16 -18,22 -33,35 -6,5 -13,9 -20,13 -2,1 -5,3 -7,4 -2,1 -5,2 -7,3 -3,2 -17,7 -21,8l-21 5c-1,0 -1,0 -2,0l-13 2c-3,0 -5,0 -7,1 -5,0 -10,0 -15,0l-22 -2c-3,-1 -5,-1 -8,-2 -4,0 -7,-2 -11,-3 -5,-1 -14,-5 -20,-7l-16 -8c-17,-9 -34,-22 -46,-37l-6 -7c-1,-1 -1,-2 -2,-3 -4,-5 -8,-11 -11,-17 -1,-2 -3,-5 -4,-7 -1,-3 -4,-7 -5,-10l-6 -18c-1,-3 -1,-5 -2,-7 -1,-5 -3,-9 -3,-14 0,-1 0,-1 0,-2l-1 -11c-1,-8 -1,-16 -1,-24 0,-5 0,-10 1,-15 0,-1 0,-2 0,-4 0,-4 2,-8 2,-12l4 -15c2,-5 3,-11 6,-16l4 -8c4,-8 8,-16 14,-24zm53 208l4 3c7,0 10,0 18,-1 7,-1 10,0 18,-1 22,-4 16,-26 16,-30 5,-2 13,0 17,-6 3,-4 1,-13 0,-17 5,-1 13,-1 17,-5 4,-5 1,-12 1,-18 4,-1 12,-1 15,-3 4,-3 10,-11 13,-16 45,10 88,-37 79,-81 -5,-24 -13,-27 -19,-38l-14 -11c-13,-3 -17,-10 -42,-9 -10,1 -27,6 -38,16 -13,11 -22,27 -24,42 -2,13 -1,29 5,40l-68 89c-8,11 -1,20 0,32 1,6 2,10 3,16zm152 -200c-20,-7 -29,22 -10,28 7,2 16,-1 19,-9 3,-7 0,-16 -9,-19zm-179 257l-13 -10 -13 -12c-1,-1 -2,-3 -4,-4 -7,-7 -14,-15 -19,-23l-10 -16 -10 -21c-1,-1 -1,-2 -2,-4l-7 -21 -6 -27c0,-5 -2,-10 -1,-15 0,-1 0,-1 0,-2 0,-1 0,0 0,-2 0,-2 0,-3 0,-4 0,-6 1,-13 1,-17 0,-7 1,-15 2,-22 0,-2 0,-3 1,-5 1,-2 1,-2 1,-4 0,-2 1,-3 1,-5 0,-2 1,-3 1,-5 2,-8 2,-7 4,-14 2,-5 3,-9 5,-13 2,-3 3,-6 4,-9 2,-3 3,-6 5,-9 2,-4 4,-6 6,-9 1,-2 3,-5 4,-7l10 -13c3,-3 5,-6 8,-9 1,-1 2,-3 4,-5 7,-7 19,-17 27,-23 2,-1 3,-1 4,-3 2,-1 2,-2 4,-3 3,-2 5,-3 8,-5l24 -12c8,-3 16,-6 25,-8l13 -3c2,-1 2,-1 4,-1 1,0 3,-1 4,-1l17 -2c2,0 3,0 4,-1 2,0 3,0 4,0 6,0 13,1 17,1 2,0 3,0 4,0 3,0 6,1 9,1 7,1 15,2 22,4 2,0 3,1 5,1 5,1 9,3 14,4 2,1 3,1 4,1 2,1 3,1 5,2l14 6c3,2 6,3 9,5 1,1 3,2 5,3l25 18 14 12c6,6 11,13 17,19 3,3 11,15 14,20l2 4c5,9 7,13 11,23l5 14c0,1 1,3 1,4l4 17c0,3 1,5 2,8 0,2 0,3 1,4 0,2 1,2 1,4 0,2 0,3 0,4 0,2 0,3 1,4 0,2 0,3 0,4l0 4c0,0 0,0 0,0l0 5c0,1 0,0 0,1 0,1 0,1 0,2 0,2 0,3 0,4 0,1 0,3 0,4 0,3 0,6 0,9 0,6 -2,12 -2,17 0,3 -1,6 -2,9 -1,7 -5,21 -8,27l-6 14c-9,19 -15,27 -27,43l-12 14c-8,8 -17,16 -27,23 -1,1 -3,2 -4,3 -1,1 -2,2 -4,3 -2,1 -2,1 -4,2 -2,1 -2,1 -4,2l-8 4c-2,1 -3,1 -4,2 -3,2 -6,2 -8,4 -2,1 -2,1 -4,2 -6,2 -20,8 -27,9l-23 4c-2,0 -3,0 -4,0 -6,1 -15,1 -18,1l-1 0c0,0 0,0 -1,0 -6,0 -13,0 -19,-1l-17 -2 -23 -5c-6,-2 -5,-2 -9,-3 -4,-1 -9,-3 -13,-5 -2,-1 -3,-1 -5,-2 -2,-1 -3,-1 -4,-2 -3,-2 -6,-3 -9,-5 -3,-2 -6,-4 -9,-6 -2,-1 -5,-3 -7,-4z"/>
 </g>
</svg>
