<?xml version="1.0" encoding="UTF-8"?>
<!DOCTYPE svg PUBLIC "-//W3C//DTD SVG 1.1//EN" "http://www.w3.org/Graphics/SVG/1.1/DTD/svg11.dtd">
<!-- Creator: CorelDRAW 2017 -->
<svg xmlns="http://www.w3.org/2000/svg" xml:space="preserve" width="0.426661in" height="0.426661in" version="1.1" style="shape-rendering:geometricPrecision; text-rendering:geometricPrecision; image-rendering:optimizeQuality; fill-rule:evenodd; clip-rule:evenodd"
viewBox="0 0 427 427"
 xmlns:xlink="http://www.w3.org/1999/xlink">
 <defs>
  <style type="text/css">
   <![CDATA[
    .fil0 {fill:#316C96}
   ]]>
  </style>
 </defs>
 <g id="Layer_x0020_1">
  <metadata id="CorelCorpID_0Corel-Layer"/>
  <g id="_1587063515120">
   <g>
    <path class="fil0" d="M42 219c0,-17 1,-27 4,-43 1,-4 2,-8 3,-12 2,-6 3,-9 5,-15 1,-2 2,-5 3,-8 1,-2 2,-4 4,-7 1,-4 9,-16 12,-19l21 -25c1,0 0,0 1,-1l0 0c7,-7 15,-13 23,-18l8 -5c2,-1 4,-3 6,-4 3,-1 5,-2 7,-4 2,-1 5,-2 7,-3l7 -3c3,-1 5,-2 8,-2 2,-1 2,-1 4,-1 2,0 3,-1 4,-1 1,0 3,0 4,-1 23,-5 40,-6 64,-3l17 3c5,1 26,8 30,11 3,2 7,3 10,5 3,2 7,4 10,6 1,1 2,1 3,2 3,2 6,4 9,7l20 18c0,0 0,0 1,1l11 13c2,2 3,4 4,6 2,3 11,16 12,19 1,3 2,5 4,7 1,2 2,5 3,7 1,2 1,2 2,3 0,1 1,3 1,4 1,3 2,5 2,8 4,12 8,33 8,44 0,21 -1,29 -5,47 -2,8 -5,15 -8,23 -1,2 -2,6 -3,8 -1,2 -3,4 -3,7 -1,3 -9,16 -12,19l-14 17c-1,1 -1,1 -1,1l-9 9c-2,2 -3,3 -5,5 -4,3 -8,6 -12,9l-19 12c-3,1 -5,2 -7,4 -3,2 -7,3 -11,5 -5,2 -14,5 -20,7l-17 3c-19,3 -40,3 -59,-2l-9 -2c-1,0 -2,-1 -4,-1 -7,-2 -13,-4 -19,-7 -2,-1 -6,-2 -8,-3 -3,-2 -7,-3 -10,-5l-16 -10c-2,-2 -4,-3 -6,-4 -4,-3 -8,-6 -11,-9 -1,-1 -1,-1 -1,-1l-8 -8c-5,-6 -10,-12 -15,-18 -3,-4 -6,-8 -8,-12 -1,-1 -1,-2 -2,-3 -2,-3 -4,-7 -6,-10l-6 -14c-2,-5 -4,-11 -5,-16l-2 -9c-2,-9 -3,-18 -3,-28zm181 194l-17 0 -18 -1c-1,0 -4,-1 -5,-1 -10,-2 -20,-4 -30,-7l-17 -7 -21 -10c-1,-1 -2,-1 -4,-2l-18 -12 -21 -18c-3,-4 -8,-7 -10,-11 -1,-1 -1,-1 -2,-2 -1,-1 0,0 -1,-1 -1,-1 -2,-2 -3,-3 -4,-4 -7,-10 -10,-14 -4,-6 -8,-12 -11,-19 -1,-2 -1,-2 -2,-4 -1,-2 -1,-2 -2,-4 -1,-2 -1,-3 -2,-4 -1,-2 -1,-3 -2,-4 -3,-8 -3,-7 -5,-13 -2,-5 -3,-9 -4,-14 -1,-4 -2,-6 -2,-10 -1,-3 -1,-7 -2,-10 -1,-4 0,-8 -1,-11 0,-3 -1,-5 -1,-8l0 -16c0,-4 0,-8 1,-12 0,-2 0,-4 0,-6 1,-9 5,-25 8,-34 1,-2 1,-3 2,-5 1,-2 1,-3 1,-4 1,-3 2,-6 4,-8l12 -24c5,-7 9,-15 15,-21l8 -10c1,-2 1,-2 3,-3 1,-1 2,-2 3,-3l13 -12c1,-1 2,-2 3,-3 1,-1 2,-2 3,-3 4,-4 10,-7 14,-10 1,-1 2,-2 4,-3 2,-2 5,-3 8,-5 6,-4 13,-7 20,-10 2,-1 3,-1 4,-2 5,-2 8,-3 13,-5 2,-1 3,-1 4,-2 2,-1 3,-1 5,-1l14 -3c3,-1 7,-1 10,-2 2,0 4,-1 5,-1l30 -1 18 1c9,1 17,4 25,5 5,1 18,5 23,7l4 2c9,4 14,6 23,11l13 8c1,1 2,2 3,2l14 11c2,2 4,4 6,6 1,1 2,2 3,3 1,1 2,1 3,3 1,1 2,2 3,3 1,1 2,2 3,3 1,1 2,2 3,3l3 3c0,0 0,0 0,0l3 4c0,0 0,0 1,1 0,1 1,1 1,1 1,1 2,2 3,4 1,1 2,2 2,3 2,3 3,5 5,7 3,5 6,10 9,15 2,3 2,5 4,8 3,6 8,20 10,26l4 15c5,20 5,30 5,51l-1 18c-1,12 -4,23 -8,34 0,2 -1,3 -2,5 -1,2 -1,3 -1,4 -1,2 -1,2 -2,4 -1,2 -1,2 -2,4l-4 8c-1,1 -1,3 -2,4 -1,3 -3,5 -4,8 -1,2 -1,2 -2,4 -4,6 -11,18 -16,23l-16 17c-1,1 -2,2 -3,3 -4,4 -11,10 -13,12l0 0c0,0 0,0 -1,1 -5,4 -11,8 -16,11l-15 9 -21 10c-6,2 -5,2 -9,3 -4,2 -9,4 -14,4 -2,0 -3,1 -5,1 -2,0 -3,1 -5,1 -3,1 -7,1 -10,2 -3,1 -7,0 -11,1 -3,0 -5,1 -8,1z"/>
    <path class="fil0" d="M93 291c0,3 0,2 2,5l2 2c1,1 0,0 1,1 1,2 1,2 2,3l8 9c2,2 15,14 18,16 2,2 4,3 7,5l7 4c3,2 11,6 15,7 5,2 6,3 12,5l13 4c5,1 14,2 19,3 12,2 31,1 42,-1 15,-3 10,-2 22,-6 7,-2 21,-8 27,-12l7 -4c2,-2 4,-3 7,-5l23 -22c1,-1 2,-2 3,-3 2,-2 1,-2 2,-3 2,-3 5,-4 5,-8 0,-4 -1,-7 -3,-11 0,-1 -1,-1 -1,-2l-4 -7c-2,-2 -1,0 -3,-3 -1,-1 -1,-2 -3,-3 -2,-2 -1,-1 -3,-3 -4,-4 -15,-10 -20,-13 -5,-2 -5,-3 -11,-5 -3,-1 -6,-3 -12,-5 -6,-1 -10,-4 -17,-5l-18 -4c-7,-1 -6,-1 -10,-1 -10,-1 -21,-1 -30,0 -3,0 -3,0 -10,1 -6,1 -15,3 -18,4 -5,1 -19,5 -25,8 -1,0 -2,1 -4,2 -5,2 -14,6 -19,9 -1,1 -2,1 -3,2 -1,1 -2,1 -4,2 -1,1 -2,1 -3,2l-11 11c-3,4 -8,14 -8,20z"/>
    <path class="fil0" d="M153 129c0,11 1,20 5,30 1,2 1,3 2,5 3,5 1,3 4,6l5 6c6,6 4,3 8,7 2,1 11,7 14,7 13,3 11,3 25,3 6,0 12,-2 18,-3 2,-1 3,-1 5,-2 3,-2 7,-3 9,-5 3,-3 8,-6 11,-10l2 -3c6,-7 11,-25 11,-33 0,-9 0,-15 -3,-24 -3,-8 0,-3 -5,-12 -4,-7 -5,-7 -11,-13 -2,-2 -5,-4 -8,-6 -7,-4 -17,-9 -25,-9 -15,0 -18,-1 -31,4 -5,2 -9,4 -13,7 -8,6 -14,13 -18,23 -2,5 -5,17 -5,22z"/>
   </g>
  </g>
 </g>
</svg>
